# Blender v2.91.2 OBJ File: 'fan.blend'
# www.blender.org
mtllib tumami.mtl
o tumami_円柱.001
v 0.000000 0.009000 -1.000000
v 0.000000 0.309000 -1.000000
v 0.500000 0.009000 -0.866025
v 0.500000 0.309000 -0.866025
v 0.866025 0.009000 -0.500000
v 0.866025 0.309000 -0.500000
v 1.000000 0.009000 0.000000
v 1.000000 0.309000 0.000000
v 0.866025 0.009000 0.500000
v 0.866025 0.309000 0.500000
v 0.500000 0.009000 0.866025
v 0.500000 0.309000 0.866025
v 0.000000 0.009000 1.000000
v 0.000000 0.309000 1.000000
v -0.500000 0.009000 0.866026
v -0.500000 0.309000 0.866026
v -0.866025 0.009000 0.500000
v -0.866025 0.309000 0.500000
v -1.000000 0.009000 0.000000
v -1.000000 0.309000 0.000000
v -0.866026 0.009000 -0.499999
v -0.866026 0.309000 -0.499999
v -0.500001 0.009000 -0.866025
v -0.500001 0.309000 -0.866025
v -0.142262 0.159000 -0.948415
v 0.142262 0.159000 -0.948415
v -0.142262 0.159000 0.948415
v 0.142262 0.159000 0.948415
v -0.142262 0.633207 0.821352
v 0.142262 0.633207 0.821352
v -0.142262 0.980352 0.474208
v 0.142262 0.980352 0.474208
v -0.142262 1.107415 0.000000
v 0.142262 1.107415 0.000000
v -0.142262 0.980352 -0.474207
v 0.142262 0.980352 -0.474207
v -0.142262 0.633208 -0.821351
v 0.142262 0.633208 -0.821351
vt 1.000000 0.500000
vt 1.000000 1.000000
vt 0.916667 1.000000
vt 0.916667 0.500000
vt 0.833333 1.000000
vt 0.833333 0.500000
vt 0.750000 1.000000
vt 0.750000 0.500000
vt 0.666667 1.000000
vt 0.666667 0.500000
vt 0.583333 1.000000
vt 0.583333 0.500000
vt 0.500000 1.000000
vt 0.500000 0.500000
vt 0.416667 1.000000
vt 0.416667 0.500000
vt 0.333333 1.000000
vt 0.333333 0.500000
vt 0.250000 1.000000
vt 0.250000 0.500000
vt 0.166667 1.000000
vt 0.166667 0.500000
vt 0.370000 0.457846
vt 0.250000 0.490000
vt 0.130000 0.457846
vt 0.042154 0.370000
vt 0.010000 0.250000
vt 0.042154 0.130000
vt 0.130000 0.042154
vt 0.250000 0.010000
vt 0.370000 0.042154
vt 0.457846 0.130000
vt 0.490000 0.250000
vt 0.457846 0.370000
vt 0.083333 1.000000
vt 0.083333 0.500000
vt 0.000000 1.000000
vt 0.000000 0.500000
vt 0.750000 0.490000
vt 0.870000 0.457846
vt 0.957846 0.370000
vt 0.990000 0.250000
vt 0.957846 0.130000
vt 0.870000 0.042154
vt 0.750000 0.010000
vt 0.630000 0.042154
vt 0.542154 0.130000
vt 0.510000 0.250000
vt 0.542154 0.370000
vt 0.630000 0.457846
vt 0.630000 0.457846
vt 0.630000 0.042154
vt 0.542154 0.130000
vt 0.510000 0.250000
vt 0.542154 0.370000
vt 0.500000 0.500000
vt 0.500000 1.000000
vt 0.416667 1.000000
vt 0.416667 0.500000
vt 0.333333 1.000000
vt 0.333333 0.500000
vt 0.250000 1.000000
vt 0.250000 0.500000
vt 0.166667 1.000000
vt 0.166667 0.500000
vt 0.130000 0.042154
vt 0.130000 0.457846
vt 0.042154 0.370000
vt 0.010000 0.250000
vt 0.042154 0.130000
vt 0.083333 1.000000
vt 0.083333 0.500000
vt 0.000000 1.000000
vt 0.000000 0.500000
vt 0.750000 0.490000
vt 0.750000 0.010000
vt 0.250000 0.010000
vt 0.250000 0.490000
vn 0.2588 0.0000 -0.9659
vn 0.7071 0.0000 -0.7071
vn 0.9659 0.0000 -0.2588
vn 0.9659 0.0000 0.2588
vn 0.7071 0.0000 0.7071
vn 0.2588 0.0000 0.9659
vn -0.2588 0.0000 0.9659
vn -0.7071 0.0000 0.7071
vn -0.9659 0.0000 0.2588
vn -0.9659 0.0000 -0.2588
vn 0.0000 1.0000 -0.0000
vn -0.7071 0.0000 -0.7071
vn -0.2588 0.0000 -0.9659
vn 0.0000 -1.0000 0.0000
vn -1.0000 0.0000 0.0000
vn 0.0000 0.2588 0.9659
vn 0.0000 0.7071 0.7071
vn 0.0000 0.9659 0.2588
vn 0.0000 0.9659 -0.2588
vn 1.0000 0.0000 -0.0000
vn 0.0000 0.7071 -0.7071
vn -0.0000 0.2588 -0.9659
usemtl None
s off
f 1/1/1 2/2/1 4/3/1 3/4/1
f 3/4/2 4/3/2 6/5/2 5/6/2
f 5/6/3 6/5/3 8/7/3 7/8/3
f 7/8/4 8/7/4 10/9/4 9/10/4
f 9/10/5 10/9/5 12/11/5 11/12/5
f 11/12/6 12/11/6 14/13/6 13/14/6
f 13/14/7 14/13/7 16/15/7 15/16/7
f 15/16/8 16/15/8 18/17/8 17/18/8
f 17/18/9 18/17/9 20/19/9 19/20/9
f 19/20/10 20/19/10 22/21/10 21/22/10
f 4/23/11 2/24/11 24/25/11 22/26/11 20/27/11 18/28/11 16/29/11 14/30/11 12/31/11 10/32/11 8/33/11 6/34/11
f 21/22/12 22/21/12 24/35/12 23/36/12
f 23/36/13 24/35/13 2/37/13 1/38/13
f 1/39/14 3/40/14 5/41/14 7/42/14 9/43/14 11/44/14 13/45/14 15/46/14 17/47/14 19/48/14 21/49/14 23/50/14
f 37/51/15 29/52/15 31/53/15 33/54/15 35/55/15
f 27/56/16 28/57/16 30/58/16 29/59/16
f 29/59/17 30/58/17 32/60/17 31/61/17
f 31/61/18 32/60/18 34/62/18 33/63/18
f 33/63/19 34/62/19 36/64/19 35/65/19
f 30/66/20 38/67/20 36/68/20 34/69/20 32/70/20
f 35/65/21 36/64/21 38/71/21 37/72/21
f 37/72/22 38/71/22 26/73/22 25/74/22
f 25/75/15 27/76/15 29/52/15 37/51/15
f 28/77/20 26/78/20 38/67/20 30/66/20
