# Blender v2.91.2 OBJ File: 'fan.blend'
# www.blender.org
mtllib tumami.mtl
o tumami_円柱.001
v 0.000000 0.006300 -0.700000
v 0.000000 0.216300 -0.700000
v 0.350000 0.006300 -0.606218
v 0.350000 0.216300 -0.606218
v 0.606218 0.006300 -0.350000
v 0.606218 0.216300 -0.350000
v 0.700000 0.006300 0.000000
v 0.700000 0.216300 0.000000
v 0.606218 0.006300 0.350000
v 0.606218 0.216300 0.350000
v 0.350000 0.006300 0.606218
v 0.350000 0.216300 0.606218
v 0.000000 0.006300 0.700000
v 0.000000 0.216300 0.700000
v -0.350000 0.006300 0.606218
v -0.350000 0.216300 0.606218
v -0.606218 0.006300 0.350000
v -0.606218 0.216300 0.350000
v -0.700000 0.006300 0.000000
v -0.700000 0.216300 0.000000
v -0.606218 0.006300 -0.350000
v -0.606218 0.216300 -0.350000
v -0.350000 0.006300 -0.606218
v -0.350000 0.216300 -0.606218
v -0.099584 0.111300 -0.663891
v 0.099584 0.111300 -0.663891
v -0.099584 0.111300 0.663891
v 0.099584 0.111300 0.663891
v -0.099584 0.443245 0.574946
v 0.099584 0.443245 0.574946
v -0.099584 0.686246 0.331946
v 0.099584 0.686246 0.331946
v -0.099584 0.775191 0.000000
v 0.099584 0.775191 0.000000
v -0.099584 0.686246 -0.331945
v 0.099584 0.686246 -0.331945
v -0.099584 0.443246 -0.574946
v 0.099584 0.443246 -0.574946
vt 0.250000 0.010000
vt 0.457846 0.130000
vt 0.457846 0.370000
vt 0.510000 0.250000
vt 0.630000 0.457846
vt 0.990000 0.250000
vt 0.630000 0.457846
vt 0.630000 0.042154
vt 0.542154 0.130000
vt 0.510000 0.250000
vt 0.542154 0.370000
vt 0.130000 0.042154
vt 0.130000 0.457846
vt 0.042154 0.370000
vt 0.010000 0.250000
vt 0.042154 0.130000
vt 0.750000 0.490000
vt 0.750000 0.010000
vt 0.250000 0.010000
vt 0.250000 0.490000
vt 0.370000 0.457846
vt 0.250000 0.490000
vt 0.130000 0.457846
vt 0.042154 0.370000
vt 0.010000 0.250000
vt 0.042154 0.130000
vt 0.130000 0.042154
vt 0.370000 0.042154
vt 0.490000 0.250000
vt 0.750000 0.490000
vt 0.870000 0.457846
vt 0.957846 0.370000
vt 0.957846 0.130000
vt 0.870000 0.042154
vt 0.750000 0.010000
vt 0.630000 0.042154
vt 0.542154 0.130000
vt 0.542154 0.370000
vt 1.000000 0.500000
vt 1.000000 1.000000
vt 0.916667 1.000000
vt 0.916667 0.500000
vt 0.833333 1.000000
vt 0.833333 0.500000
vt 0.750000 1.000000
vt 0.750000 0.500000
vt 0.666667 1.000000
vt 0.666667 0.500000
vt 0.583333 1.000000
vt 0.583333 0.500000
vt 0.500000 1.000000
vt 0.500000 0.500000
vt 0.416667 1.000000
vt 0.416667 0.500000
vt 0.333333 1.000000
vt 0.333333 0.500000
vt 0.250000 1.000000
vt 0.250000 0.500000
vt 0.166667 1.000000
vt 0.166667 0.500000
vt 0.083333 1.000000
vt 0.083333 0.500000
vt 0.000000 1.000000
vt 0.000000 0.500000
vt 0.500000 0.500000
vt 0.500000 1.000000
vt 0.416667 1.000000
vt 0.416667 0.500000
vt 0.333333 1.000000
vt 0.333333 0.500000
vt 0.250000 1.000000
vt 0.250000 0.500000
vt 0.166667 1.000000
vt 0.166667 0.500000
vt 0.083333 1.000000
vt 0.083333 0.500000
vt 0.000000 1.000000
vt 0.000000 0.500000
vn 0.0000 1.0000 -0.0000
vn 0.0000 -1.0000 -0.0000
vn -1.0000 0.0000 0.0000
vn 1.0000 -0.0000 -0.0000
vn 0.0000 -0.6532 -0.7571
vn 0.0000 0.6532 -0.7571
vn 0.3786 0.6532 -0.6557
vn 0.3786 -0.6532 -0.6557
vn 0.6557 0.6532 -0.3786
vn 0.6557 -0.6532 -0.3786
vn 0.7571 0.6532 0.0000
vn 0.7571 -0.6532 0.0000
vn 0.6557 0.6532 0.3786
vn 0.6557 -0.6532 0.3786
vn 0.3786 0.6532 0.6557
vn 0.3786 -0.6532 0.6557
vn 0.0000 0.6532 0.7571
vn 0.0000 -0.6532 0.7571
vn -0.3786 0.6532 0.6557
vn -0.3786 -0.6532 0.6557
vn -0.6557 0.6532 0.3786
vn -0.6557 -0.6532 0.3786
vn -0.7571 0.6532 0.0000
vn -0.7571 -0.6532 0.0000
vn -0.6557 0.6532 -0.3786
vn -0.6557 -0.6532 -0.3786
vn -0.3786 0.6532 -0.6557
vn -0.3786 -0.6532 -0.6557
vn -0.6402 0.1988 0.7420
vn 0.6402 0.1988 0.7420
vn 0.6532 0.3786 0.6557
vn -0.6532 0.3786 0.6557
vn 0.6532 0.6557 0.3786
vn -0.6532 0.6557 0.3786
vn 0.6532 0.7571 0.0000
vn -0.6532 0.7571 0.0000
vn 0.6532 0.6557 -0.3786
vn -0.6532 0.6557 -0.3786
vn 0.6532 0.3786 -0.6557
vn -0.6532 0.3786 -0.6557
vn 0.6402 0.1988 -0.7420
vn -0.6402 0.1988 -0.7420
usemtl None
s off
f 14/1/1 10/2/1 6/3/1
f 19/4/2 23/5/2 7/6/2
f 37/7/3 29/8/3 31/9/3 33/10/3 35/11/3
f 30/12/4 38/13/4 36/14/4 34/15/4 32/16/4
f 25/17/3 27/18/3 29/8/3 37/7/3
f 28/19/4 26/20/4 38/13/4 30/12/4
f 6/3/1 4/21/1 2/22/1
f 2/22/1 24/23/1 22/24/1
f 22/24/1 20/25/1 18/26/1
f 18/26/1 16/27/1 14/1/1
f 14/1/1 12/28/1 10/2/1
f 10/2/1 8/29/1 6/3/1
f 6/3/1 2/22/1 14/1/1
f 2/22/1 22/24/1 14/1/1
f 22/24/1 18/26/1 14/1/1
f 23/5/2 1/30/2 3/31/2
f 3/31/2 5/32/2 7/6/2
f 7/6/2 9/33/2 11/34/2
f 11/34/2 13/35/2 15/36/2
f 15/36/2 17/37/2 19/4/2
f 19/4/2 21/38/2 23/5/2
f 23/5/2 3/31/2 7/6/2
f 7/6/2 11/34/2 15/36/2
f 15/36/2 19/4/2 7/6/2
s 1
f 1/39/5 2/40/6 4/41/7 3/42/8
f 3/42/8 4/41/7 6/43/9 5/44/10
f 5/44/10 6/43/9 8/45/11 7/46/12
f 7/46/12 8/45/11 10/47/13 9/48/14
f 9/48/14 10/47/13 12/49/15 11/50/16
f 11/50/16 12/49/15 14/51/17 13/52/18
f 13/52/18 14/51/17 16/53/19 15/54/20
f 15/54/20 16/53/19 18/55/21 17/56/22
f 17/56/22 18/55/21 20/57/23 19/58/24
f 19/58/24 20/57/23 22/59/25 21/60/26
f 21/60/26 22/59/25 24/61/27 23/62/28
f 23/62/28 24/61/27 2/63/6 1/64/5
f 27/65/29 28/66/30 30/67/31 29/68/32
f 29/68/32 30/67/31 32/69/33 31/70/34
f 31/70/34 32/69/33 34/71/35 33/72/36
f 33/72/36 34/71/35 36/73/37 35/74/38
f 35/74/38 36/73/37 38/75/39 37/76/40
f 37/76/40 38/75/39 26/77/41 25/78/42
