# Blender v2.91.2 OBJ File: 'fan.blend'
# www.blender.org
mtllib wing.mtl
o wing_円柱.003
v -0.251108 -0.642678 0.606228
v -0.000000 -0.642678 0.656176
v -0.463986 -0.642678 0.463987
v -0.606228 -0.642678 0.251108
v -0.656176 -0.642678 0.000000
v -0.606228 -0.642678 -0.251108
v -0.463986 -0.642678 -0.463987
v -0.251108 -0.642678 -0.606228
v -0.000000 -0.642678 -0.656176
v 0.251107 -0.642678 -0.606228
v 0.463986 -0.642678 -0.463987
v 0.606227 -0.642678 -0.251108
v 0.656176 -0.642678 0.000000
v 0.606227 -0.642678 0.251108
v 0.463986 -0.642678 0.463987
v 0.251107 -0.642678 0.606228
v -0.606228 0.663658 -0.251108
v 0.656176 0.663658 0.000000
v -0.000000 0.663658 -0.656176
v -0.251108 0.663658 0.606228
v -0.000000 0.663658 0.656177
v -0.656176 0.663658 0.000000
v 0.251107 0.663658 0.606228
v 0.606227 0.663658 -0.251108
v -0.251108 0.663658 -0.606228
v -0.463986 0.663658 -0.463986
v -0.606228 0.663658 0.251108
v -0.463986 0.663658 0.463987
v 0.463986 0.663658 0.463987
v 0.606227 0.663658 0.251108
v 0.463986 0.663658 -0.463987
v 0.251107 0.663658 -0.606228
v -0.000000 -0.642678 0.000001
v -0.000000 0.663658 0.000001
v 0.882834 0.340591 2.402820
v -0.002927 0.012032 0.386691
v 0.882834 0.215822 2.360258
v -0.002915 -0.112877 0.344081
v -1.789189 0.011135 2.572645
v -0.609576 0.016264 0.205495
v -1.789189 -0.112727 2.530391
v -0.609576 -0.106663 0.163561
v -0.182511 0.120747 1.421420
v -0.176964 -0.011515 1.376301
v -2.173795 -0.146369 1.330298
v -2.174049 -0.022954 1.372399
v -0.265423 0.036386 0.787651
v -0.264537 -0.092702 0.743615
v -1.651986 -0.135440 0.637716
v -1.651987 -0.012283 0.679729
v 0.660563 0.154819 1.908717
v -2.181377 -0.149419 1.919744
v -2.181377 -0.026005 1.961845
v 0.660563 0.280922 1.951735
v 0.098500 0.110138 2.940978
v -0.286902 -0.109201 0.254015
v 0.098500 0.232017 2.982554
v -0.286902 0.013912 0.296012
v -1.149803 0.021380 1.387523
v -1.147482 -0.103084 1.345064
v -0.913127 0.005669 0.731513
v -0.913118 -0.117664 0.689440
v -0.744430 -0.055738 1.894295
v -0.747194 0.069847 1.937137
v -0.801030 0.102514 2.938216
v -0.801029 -0.019595 2.896561
v 0.622522 0.193763 2.777495
v 0.637088 0.319229 2.808842
v 1.407849 0.380372 -2.111196
v 0.203177 -0.046440 -0.332092
v 1.393927 0.253871 -2.095316
v 0.189233 -0.173083 -0.316205
v 2.983166 0.105943 0.077686
v 0.359397 -0.042629 0.281473
v 2.969345 -0.019639 0.093450
v 0.345681 -0.167262 0.297118
v 1.157707 0.123371 -0.704094
v 1.140101 -0.010817 -0.692019
v 2.150042 -0.114980 1.037862
v 2.163944 0.010151 1.022373
v 0.675264 0.004831 -0.311634
v 0.660405 -0.126062 -0.295966
v 1.289999 -0.151954 0.946398
v 1.303743 -0.027088 0.930725
v 1.134133 0.171183 -1.675766
v 2.656822 -0.084414 0.741593
v 2.670593 0.040713 0.725886
v 1.148204 0.299036 -1.691815
v 2.310368 0.194538 -1.725786
v 0.257591 -0.169911 -0.026208
v 2.323968 0.318108 -1.741297
v 0.271329 -0.045090 -0.041876
v 1.643137 0.038399 0.138216
v 1.628058 -0.087831 0.152066
v 0.965396 -0.018342 0.271265
v 0.951629 -0.143387 0.286954
v 1.880755 -0.016126 -0.473353
v 1.896188 0.111248 -0.486965
v 2.771116 0.201468 -0.953189
v 2.757490 0.077664 -0.937649
v 1.887080 0.259873 -2.087312
v 1.883841 0.386193 -2.109893
v -2.546556 0.239231 -0.171290
v -0.311842 0.002753 -0.034650
v -2.490622 0.116361 -0.183899
v -0.255850 -0.120256 -0.047264
v -1.358689 0.176423 -2.638222
v 0.137639 0.066364 -0.466137
v -1.303161 0.054447 -2.650741
v 0.192748 -0.054691 -0.478560
v -1.144420 0.127225 -0.665678
v -1.087796 -0.003566 -0.674280
v -0.066031 0.059191 -2.403486
v -0.121236 0.180751 -2.391232
v -0.538919 0.052374 -0.449672
v -0.481476 -0.074835 -0.461956
v 0.285290 0.018972 -1.613658
v 0.230078 0.140255 -1.601213
v -1.980519 0.078130 -0.170454
v -0.576125 0.056827 -2.698984
v -0.631452 0.178362 -2.686512
v -2.037052 0.202313 -0.157709
v -2.603694 0.088991 -1.169967
v -0.041119 -0.088808 -0.246235
v -2.658332 0.209014 -1.157649
v -0.096310 0.032430 -0.233794
v -0.634202 0.124102 -1.506769
v -0.579521 0.001305 -1.517354
v -0.173502 0.085566 -0.986929
v -0.118215 -0.035890 -0.999385
v -1.259816 0.008365 -1.426898
v -1.314786 0.132309 -1.416581
v -2.167085 0.169578 -1.943490
v -2.112343 0.049327 -1.955830
v -2.725956 0.120057 -0.617433
v -2.779224 0.242188 -0.586639
vt 0.625000 1.000000
vt 0.625000 1.000000
vt 0.687500 1.000000
vt 0.687500 1.000000
vt 0.875000 1.000000
vt 0.937500 1.000000
vt 0.937500 1.000000
vt 0.875000 1.000000
vt 0.187500 1.000000
vt 0.250000 1.000000
vt 0.250000 1.000000
vt 0.187500 1.000000
vt 0.437500 1.000000
vt 0.437500 1.000000
vt 0.500000 1.000000
vt 0.500000 1.000000
vt 0.750000 1.000000
vt 0.750000 1.000000
vt 0.000000 1.000000
vt 0.062500 1.000000
vt 0.062500 1.000000
vt 0.000000 1.000000
vt 0.312500 1.000000
vt 0.312500 1.000000
vt 0.562500 1.000000
vt 0.562500 1.000000
vt 1.000000 1.000000
vt 1.000000 1.000000
vt 0.812500 1.000000
vt 0.812500 1.000000
vt 0.125000 1.000000
vt 0.125000 1.000000
vt 0.375000 1.000000
vt 0.375000 1.000000
vt 0.250000 1.000000
vt 0.750000 1.000000
vt 0.588179 0.000000
vt 0.625000 0.000000
vt 0.625000 0.250000
vt 0.588179 0.250000
vt 0.588179 0.375000
vt 0.625000 0.375000
vt 0.625000 0.500000
vt 0.588179 0.500000
vt 0.588179 0.750000
vt 0.625000 0.750000
vt 0.588179 0.875000
vt 0.588179 1.000000
vt 0.625000 1.000000
vt 0.625000 0.875000
vt 0.250000 0.500000
vt 0.312500 0.500000
vt 0.312500 0.750000
vt 0.250000 0.750000
vt 0.750000 0.500000
vt 0.875000 0.500000
vt 0.875000 0.750000
vt 0.750000 0.750000
vt 0.428975 0.875000
vt 0.428975 1.000000
vt 0.551358 1.000000
vt 0.551358 0.875000
vt 0.428975 0.500000
vt 0.428975 0.750000
vt 0.551358 0.750000
vt 0.551358 0.500000
vt 0.428975 0.375000
vt 0.551358 0.375000
vt 0.428975 0.000000
vt 0.428975 0.250000
vt 0.551358 0.250000
vt 0.551358 0.000000
vt 0.375000 0.000000
vt 0.375000 0.250000
vt 0.375000 0.375000
vt 0.375000 0.437500
vt 0.375000 0.500000
vt 0.375000 0.750000
vt 0.375000 0.875000
vt 0.375000 0.937500
vt 0.375000 0.812500
vt 0.375000 0.308586
vt 0.125000 0.500000
vt 0.183586 0.500000
vt 0.178944 0.750000
vt 0.125000 0.750000
vt 0.187500 0.750000
vt 0.187500 0.500000
vt 0.375000 0.312500
vt 0.375000 0.946056
vt 0.375000 1.000000
vt 0.588179 0.000000
vt 0.625000 0.000000
vt 0.625000 0.250000
vt 0.588179 0.250000
vt 0.588179 0.375000
vt 0.625000 0.375000
vt 0.625000 0.500000
vt 0.588179 0.500000
vt 0.625000 0.750000
vt 0.588179 0.750000
vt 0.588179 0.875000
vt 0.625000 0.875000
vt 0.625000 1.000000
vt 0.588179 1.000000
vt 0.250000 0.500000
vt 0.312500 0.500000
vt 0.312500 0.750000
vt 0.250000 0.750000
vt 0.750000 0.500000
vt 0.875000 0.500000
vt 0.875000 0.750000
vt 0.750000 0.750000
vt 0.428975 0.875000
vt 0.428975 1.000000
vt 0.551358 1.000000
vt 0.551358 0.875000
vt 0.428975 0.500000
vt 0.551358 0.500000
vt 0.551358 0.750000
vt 0.428975 0.750000
vt 0.428975 0.375000
vt 0.551358 0.375000
vt 0.428975 0.000000
vt 0.428975 0.250000
vt 0.551358 0.250000
vt 0.551358 0.000000
vt 0.375000 0.000000
vt 0.375000 0.250000
vt 0.375000 0.375000
vt 0.375000 0.437500
vt 0.375000 0.500000
vt 0.375000 0.750000
vt 0.375000 0.875000
vt 0.375000 0.937500
vt 0.375000 0.812500
vt 0.375000 0.308586
vt 0.125000 0.500000
vt 0.125000 0.750000
vt 0.178944 0.750000
vt 0.183586 0.500000
vt 0.187500 0.750000
vt 0.187500 0.500000
vt 0.375000 0.312500
vt 0.375000 0.946056
vt 0.375000 1.000000
vt 0.588179 0.000000
vt 0.588179 0.250000
vt 0.625000 0.250000
vt 0.625000 0.000000
vt 0.588179 0.375000
vt 0.625000 0.375000
vt 0.625000 0.500000
vt 0.588179 0.500000
vt 0.625000 0.750000
vt 0.588179 0.750000
vt 0.588179 0.875000
vt 0.588179 1.000000
vt 0.625000 1.000000
vt 0.625000 0.875000
vt 0.250000 0.500000
vt 0.250000 0.750000
vt 0.312500 0.750000
vt 0.312500 0.500000
vt 0.750000 0.500000
vt 0.875000 0.500000
vt 0.875000 0.750000
vt 0.750000 0.750000
vt 0.428975 0.875000
vt 0.428975 1.000000
vt 0.551358 1.000000
vt 0.551358 0.875000
vt 0.428975 0.500000
vt 0.428975 0.750000
vt 0.551358 0.750000
vt 0.551358 0.500000
vt 0.428975 0.375000
vt 0.551358 0.375000
vt 0.428975 0.000000
vt 0.551358 0.000000
vt 0.551358 0.250000
vt 0.428975 0.250000
vt 0.375000 0.000000
vt 0.375000 0.250000
vt 0.375000 0.375000
vt 0.375000 0.437500
vt 0.375000 0.500000
vt 0.375000 0.750000
vt 0.375000 0.875000
vt 0.375000 0.937500
vt 0.375000 0.812500
vt 0.375000 0.308586
vt 0.125000 0.500000
vt 0.125000 0.750000
vt 0.178944 0.750000
vt 0.183586 0.500000
vt 0.187500 0.750000
vt 0.187500 0.500000
vt 0.375000 0.312500
vt 0.375000 0.946056
vt 0.375000 1.000000
vn -0.8315 0.0000 -0.5556
vn 0.5556 0.0000 -0.8315
vn -0.9808 0.0000 -0.1951
vn 0.1951 0.0000 -0.9808
vn -0.1951 0.0000 -0.9808
vn -0.9808 0.0000 0.1951
vn -0.5556 0.0000 -0.8315
vn -0.8315 -0.0000 0.5556
vn -0.5556 -0.0000 0.8315
vn 0.0000 1.0000 -0.0000
vn -0.8178 0.1832 -0.5456
vn -0.0159 0.9998 0.0117
vn -0.4023 0.2956 -0.8665
vn -0.0239 0.9987 -0.0446
vn 0.0002 0.3229 -0.9464
vn -0.2912 -0.3089 0.9054
vn -0.1286 0.9908 -0.0431
vn -0.9999 0.0033 -0.0126
vn 0.0556 -0.9983 0.0195
vn 0.4694 0.2941 -0.8326
vn -0.0752 0.9934 -0.0860
vn -0.7840 0.1997 -0.5877
vn 0.0337 -0.9992 0.0216
vn 0.9871 0.0729 -0.1424
vn -0.8780 -0.1546 0.4531
vn -0.1405 0.9891 -0.0436
vn -0.8220 -0.1839 0.5390
vn -0.1657 0.9860 -0.0189
vn -0.0731 0.9969 -0.0278
vn -0.1502 0.9873 -0.0508
vn -0.0673 0.9944 -0.0816
vn -0.0344 0.9991 -0.0231
vn -0.1250 0.9908 -0.0524
vn -0.0570 0.9982 -0.0200
vn -0.2587 -0.3119 0.9142
vn -0.8396 0.1982 -0.5057
vn -0.0161 0.9998 0.0108
vn -0.0177 0.9993 -0.0329
vn -0.0726 0.9969 -0.0299
vn -0.3050 -0.3075 0.9013
vn -0.1405 0.9893 -0.0398
vn 0.3312 -0.2847 0.8996
vn -0.1647 0.9861 -0.0236
vn -0.1502 0.9875 -0.0482
vn -0.0560 0.1276 0.9902
vn -0.0390 0.9990 0.0229
vn 0.5607 -0.1636 -0.8117
vn 0.0835 -0.9948 -0.0591
vn -0.8489 0.1568 0.5048
vn 0.9648 -0.1346 -0.2259
vn -0.0273 0.9886 0.1482
vn -0.5018 -0.0521 -0.8634
vn -0.0453 0.9963 0.0732
vn -0.9919 0.1231 0.0301
vn -0.0925 0.9878 0.1253
vn 0.1106 -0.1350 -0.9847
vn -0.0585 0.9967 0.0556
vn -0.6334 -0.0034 -0.7738
vn -0.8523 0.0283 -0.5222
vn -0.0216 0.9871 0.1586
vn -0.9016 0.0452 -0.4302
vn 0.0127 0.9859 0.1669
vn -0.0433 0.9948 0.0926
vn 0.0227 -0.9850 -0.1708
vn 0.0928 -0.9889 -0.1160
vn -0.0594 0.9966 0.0569
vn 0.0372 -0.9880 -0.1501
vn -0.0450 0.9962 0.0747
vn 0.9559 -0.1378 -0.2593
vn 0.0113 -0.1509 -0.9885
vn 0.0396 -0.9989 -0.0236
vn -0.0765 0.9959 0.0477
vn -0.0454 0.9946 0.0933
vn -0.9683 0.1331 0.2115
vn -0.0184 0.9875 0.1566
vn -0.6261 0.1428 0.7665
vn 0.0081 0.9857 0.1686
vn -0.0205 0.9853 0.1694
vn -0.8192 -0.4112 0.3999
vn -0.0509 0.9965 0.0664
vn -0.9094 -0.4037 -0.1003
vn 0.0025 0.9962 0.0870
vn -0.8108 -0.3187 -0.4909
vn -0.6457 -0.2189 -0.7315
vn 0.0510 0.9987 -0.0048
vn 0.4768 0.3008 -0.8259
vn -0.0041 0.9989 0.0469
vn -0.4974 -0.1492 -0.8546
vn 0.0632 0.9961 0.0619
vn -0.8382 -0.4169 0.3515
vn -0.0129 0.9977 0.0671
vn 0.3488 0.2278 -0.9091
vn 0.0350 0.1178 -0.9924
vn -0.0571 -0.9983 0.0147
vn -0.0663 0.0720 -0.9952
vn 0.0477 0.9977 -0.0479
vn 0.0115 0.9993 0.0357
vn 0.0678 0.9975 -0.0195
vn 0.0556 0.9962 0.0667
vn -0.0113 0.9977 0.0672
vn 0.0574 0.9983 0.0027
vn -0.0030 0.9989 0.0459
vn -0.6684 -0.2317 -0.7068
vn -0.7921 -0.4298 0.4333
vn -0.0500 0.9965 0.0666
vn -0.0109 0.9962 0.0867
vn 0.0131 0.9992 0.0372
vn -0.6357 -0.2133 -0.7419
vn 0.0538 0.9984 -0.0165
vn -0.9105 -0.3744 -0.1756
vn 0.0513 0.9977 -0.0447
vn 0.0656 0.9976 -0.0208
usemtl None
s off
f 26/1/1 7/2/1 6/3/1 17/4/1
f 28/5/2 20/6/2 1/7/2 3/8/2
f 30/9/3 18/10/3 13/11/3 14/12/3
f 32/13/4 10/14/4 9/15/4 19/16/4
f 17/4/3 6/3/3 5/17/3 22/18/3
f 21/19/5 23/20/5 16/21/5 2/22/5
f 18/10/6 24/23/6 12/24/6 13/11/6
f 19/16/5 9/15/5 8/25/5 25/26/5
f 20/6/4 21/27/4 2/28/4 1/7/4
f 22/18/6 5/17/6 4/29/6 27/30/6
f 23/20/7 29/31/7 15/32/7 16/21/7
f 24/23/8 31/33/8 11/34/8 12/24/8
f 25/26/7 8/25/7 7/2/7 26/1/7
f 27/30/8 4/29/8 3/8/8 28/5/8
f 29/31/1 30/9/1 14/12/1 15/32/1
f 31/33/9 32/13/9 10/14/9 11/34/9
f 3/8/10 33/35/10 4/29/10
f 24/23/10 34/36/10 18/10/10
f 3/8/10 1/7/10 33/35/10
f 11/34/10 10/14/10 33/35/10
f 15/32/10 14/12/10 33/35/10
f 7/2/10 6/3/10 33/35/10
f 26/1/10 34/36/10 25/26/10
f 28/5/10 34/36/10 27/30/10
f 29/31/10 34/36/10 23/20/10
f 1/7/10 2/22/10 33/35/10
f 33/35/10 5/17/10 4/29/10
f 19/16/10 34/36/10 32/13/10
f 32/13/10 34/36/10 31/33/10
f 31/33/10 34/36/10 24/23/10
f 10/14/10 9/15/10 33/35/10
f 33/35/10 13/11/10 12/24/10
f 12/24/10 11/34/10 33/35/10
f 14/12/10 13/11/10 33/35/10
f 33/35/10 2/22/10 16/21/10
f 16/21/10 15/32/10 33/35/10
f 6/3/10 5/17/10 33/35/10
f 33/35/10 9/15/10 8/25/10
f 8/25/10 7/2/10 33/35/10
f 25/26/10 34/36/10 19/16/10
f 34/36/10 17/4/10 22/18/10
f 17/4/10 34/36/10 26/1/10
f 27/30/10 34/36/10 22/18/10
f 34/36/10 20/6/10 21/27/10
f 20/6/10 34/36/10 28/5/10
f 21/27/10 23/20/10 34/36/10
f 34/36/10 30/9/10 18/10/10
f 29/31/10 30/9/10 34/36/10
f 47/37/11 36/38/11 38/39/11 48/40/11
f 62/41/12 56/42/12 42/43/12 49/44/12
f 49/44/13 50/45/13 40/46/13 42/43/13
f 61/47/14 47/48/14 36/49/14 58/50/14
f 55/51/15 66/52/15 65/53/15 57/54/15
f 56/55/16 38/56/16 36/57/16 58/58/16
f 64/59/17 54/60/17 43/61/17 59/62/17
f 52/63/18 53/64/18 46/65/18 45/66/18
f 63/67/19 52/63/19 45/66/19 60/68/19
f 54/69/20 51/70/20 44/71/20 43/72/20
f 59/62/21 43/61/21 47/48/21 61/47/21
f 45/66/22 46/65/22 50/45/22 49/44/22
f 60/68/23 45/66/23 49/44/23 62/41/23
f 43/72/24 44/71/24 48/40/24 47/37/24
f 35/73/25 54/69/25 51/70/25 37/74/25
f 55/75/26 63/67/26 66/76/26
f 41/77/27 39/78/27 53/64/27 52/63/27
f 57/79/28 68/80/28 64/59/28
f 39/78/29 65/81/29 64/59/29 53/64/29
f 37/74/30 51/70/30 63/67/30 67/82/30
f 44/71/31 48/40/31 62/41/31 60/68/31
f 46/65/32 59/62/32 61/47/32 50/45/32
f 51/70/33 44/71/33 60/68/33 63/67/33
f 53/64/34 64/59/34 59/62/34 46/65/34
f 42/43/35 56/55/35 58/58/35 40/46/35
f 37/83/36 67/84/36 68/85/36 35/86/36
f 50/45/37 61/47/37 58/50/37 40/46/37
f 48/40/38 38/39/38 56/42/38 62/41/38
f 66/76/39 63/67/39 52/63/39 41/77/39
f 65/53/40 39/78/40 41/77/40 66/52/40
f 65/81/41 57/79/41 64/59/41
f 68/87/42 57/54/42 55/51/42 67/88/42
f 67/89/43 63/67/43 55/75/43
f 68/90/44 35/91/44 54/60/44 64/59/44
f 81/92/45 70/93/45 72/94/45 82/95/45
f 96/96/46 90/97/46 76/98/46 83/99/46
f 83/99/47 76/98/47 74/100/47 84/101/47
f 95/102/48 92/103/48 70/104/48 81/105/48
f 89/106/49 100/107/49 99/108/49 91/109/49
f 90/110/50 72/111/50 70/112/50 92/113/50
f 98/114/51 88/115/51 77/116/51 93/117/51
f 86/118/52 79/119/52 80/120/52 87/121/52
f 97/122/53 94/123/53 79/119/53 86/118/53
f 88/124/54 85/125/54 78/126/54 77/127/54
f 93/117/55 77/116/55 81/105/55 95/102/55
f 79/119/56 83/99/56 84/101/56 80/120/56
f 94/123/57 96/96/57 83/99/57 79/119/57
f 77/127/58 78/126/58 82/95/58 81/92/58
f 69/128/59 71/129/59 85/125/59 88/124/59
f 89/130/60 97/122/60 100/131/60
f 75/132/61 86/118/61 87/121/61 73/133/61
f 91/134/62 102/135/62 98/114/62
f 73/133/63 99/136/63 98/114/63 87/121/63
f 71/129/64 101/137/64 97/122/64 85/125/64
f 78/126/65 94/123/65 96/96/65 82/95/65
f 80/120/66 93/117/66 95/102/66 84/101/66
f 85/125/67 97/122/67 94/123/67 78/126/67
f 87/121/68 98/114/68 93/117/68 80/120/68
f 76/98/69 90/110/69 92/113/69 74/100/69
f 71/138/70 69/139/70 102/140/70 101/141/70
f 84/101/71 74/100/71 92/103/71 95/102/71
f 82/95/72 72/94/72 90/97/72 96/96/72
f 100/131/73 97/122/73 86/118/73 75/132/73
f 99/108/74 100/107/74 75/132/74 73/133/74
f 99/136/75 91/134/75 98/114/75
f 102/142/76 101/143/76 89/106/76 91/109/76
f 101/144/77 97/122/77 89/130/77
f 102/145/78 69/146/78 88/115/78 98/114/78
f 115/147/79 116/148/79 106/149/79 104/150/79
f 130/151/80 124/152/80 110/153/80 117/154/80
f 117/154/81 110/153/81 108/155/81 118/156/81
f 129/157/82 115/158/82 104/159/82 126/160/82
f 123/161/83 125/162/83 133/163/83 134/164/83
f 124/165/84 106/166/84 104/167/84 126/168/84
f 132/169/85 122/170/85 111/171/85 127/172/85
f 120/173/86 121/174/86 114/175/86 113/176/86
f 131/177/87 128/178/87 113/176/87 120/173/87
f 122/179/88 111/180/88 112/181/88 119/182/88
f 127/172/89 111/171/89 115/158/89 129/157/89
f 113/176/90 117/154/90 118/156/90 114/175/90
f 128/178/91 130/151/91 117/154/91 113/176/91
f 111/180/92 115/147/92 116/148/92 112/181/92
f 103/183/93 122/179/93 119/182/93 105/184/93
f 123/185/94 134/186/94 131/177/94
f 109/187/95 107/188/95 121/174/95 120/173/95
f 125/189/96 136/190/96 132/169/96
f 107/188/97 133/191/97 132/169/97 121/174/97
f 105/184/98 119/182/98 131/177/98 135/192/98
f 112/181/99 116/148/99 130/151/99 128/178/99
f 114/175/100 127/172/100 129/157/100 118/156/100
f 119/182/101 112/181/101 128/178/101 131/177/101
f 121/174/102 132/169/102 127/172/102 114/175/102
f 110/153/103 124/165/103 126/168/103 108/155/103
f 105/193/104 103/194/104 136/195/104 135/196/104
f 118/156/105 129/157/105 126/160/105 108/155/105
f 116/148/106 106/149/106 124/152/106 130/151/106
f 134/186/107 131/177/107 120/173/107 109/187/107
f 133/163/108 107/188/108 109/187/108 134/164/108
f 133/191/109 125/189/109 132/169/109
f 136/197/110 125/162/110 123/161/110 135/198/110
f 135/199/111 131/177/111 123/185/111
f 136/200/112 103/201/112 122/170/112 132/169/112
